<svg width="480" height="301" viewBox="0 0 480 301" fill="none" xmlns="http://www.w3.org/2000/svg">
<path fill-rule="evenodd" clip-rule="evenodd" d="M479.9 284.1C479.9 292.9 472.8 300.1 463.9 300.1H16C7.2 300.1 0 293 0 284.1V16.1C0 7.30001 7.1 0.100006 16 0.100006H464C472.8 0.100006 480 7.20001 480 16.1V284.1H479.9Z" fill="white"/>
<path d="M418.927 130.316C418.927 128.944 419.176 127.636 419.675 126.451C420.173 125.267 420.859 124.208 421.732 123.273C422.604 122.4 423.601 121.652 424.786 121.154C425.97 120.655 427.216 120.406 428.587 120.406C429.958 120.406 431.205 120.655 432.389 121.154C433.573 121.652 434.633 122.4 435.505 123.273C436.378 124.145 437.063 125.205 437.562 126.451C438.061 127.636 438.31 128.944 438.31 130.316C438.31 131.687 438.061 132.995 437.562 134.18C437.063 135.364 436.378 136.423 435.505 137.358C434.633 138.231 433.573 138.979 432.389 139.477C431.205 139.976 429.896 140.225 428.587 140.225C427.216 140.225 425.97 139.976 424.786 139.477C423.601 138.979 422.604 138.231 421.732 137.358C420.859 136.486 420.173 135.426 419.675 134.18C419.176 132.995 418.927 131.687 418.927 130.316ZM420.921 130.316C420.921 131.437 421.108 132.497 421.482 133.494C421.856 134.491 422.417 135.301 423.103 136.049C423.788 136.797 424.599 137.358 425.533 137.794C426.468 138.231 427.465 138.418 428.587 138.418C429.709 138.418 430.706 138.231 431.641 137.794C432.576 137.358 433.386 136.797 434.134 136.049C434.82 135.301 435.381 134.491 435.755 133.494C436.129 132.497 436.378 131.437 436.378 130.316C436.378 129.194 436.191 128.134 435.755 127.137C435.381 126.14 434.82 125.33 434.134 124.582C433.449 123.834 432.638 123.273 431.641 122.837C430.706 122.4 429.647 122.213 428.587 122.213C427.528 122.213 426.468 122.4 425.533 122.837C424.599 123.273 423.788 123.834 423.103 124.582C422.417 125.33 421.856 126.14 421.482 127.137C421.108 128.072 420.921 129.131 420.921 130.316ZM425.222 126.015C425.222 125.392 425.533 125.143 426.094 125.143H429.148C430.145 125.143 430.893 125.454 431.517 126.015C432.078 126.576 432.389 127.324 432.389 128.321C432.389 128.695 432.327 129.069 432.202 129.381C432.078 129.692 431.953 129.942 431.766 130.191C431.579 130.44 431.392 130.627 431.143 130.752C430.956 130.876 430.706 131.001 430.519 131.063V131.126C430.519 131.126 430.582 131.188 430.582 131.25C430.644 131.313 430.644 131.375 430.706 131.437C430.769 131.5 430.769 131.624 430.893 131.749L432.327 134.491C432.514 134.803 432.514 135.052 432.451 135.239C432.389 135.426 432.14 135.551 431.828 135.551H431.517C431.018 135.551 430.644 135.364 430.457 134.865L428.899 131.562H427.216V134.678C427.216 135.239 426.905 135.551 426.344 135.551H426.094C425.533 135.551 425.222 135.239 425.222 134.678V126.015ZM428.837 130.004C429.335 130.004 429.771 129.879 430.083 129.568C430.395 129.256 430.519 128.82 430.519 128.259C430.519 127.76 430.395 127.324 430.083 127.012C429.771 126.701 429.398 126.576 428.899 126.576H427.216V130.004H428.837V130.004ZM349.435 136.548C352.489 136.548 355.107 136.922 357.288 137.732C359.407 138.542 361.09 139.228 362.336 139.914C363.333 140.474 363.957 141.16 364.144 142.095C364.331 143.03 364.144 143.965 363.707 145.024L362.772 146.645C362.212 147.704 361.526 148.39 360.716 148.577C359.843 148.764 358.846 148.577 357.724 148.14C356.727 147.642 355.48 147.143 353.985 146.645C352.551 146.146 350.868 145.897 348.936 145.897C346.942 145.897 345.384 146.271 344.324 147.081C343.265 147.891 342.704 149.013 342.704 150.446C342.704 151.693 343.265 152.752 344.387 153.5C345.509 154.311 346.942 154.996 348.625 155.557C350.37 156.18 352.177 156.804 354.172 157.489C356.104 158.175 357.973 159.047 359.719 160.169C361.464 161.229 362.835 162.662 363.957 164.345C365.078 166.028 365.639 168.209 365.639 170.764C365.639 172.821 365.203 174.691 364.393 176.436C363.583 178.181 362.398 179.677 360.84 180.923C359.282 182.17 357.413 183.167 355.293 183.915C353.112 184.663 350.681 184.974 348.064 184.974C344.324 184.974 341.146 184.413 338.59 183.354C336.035 182.294 334.041 181.235 332.67 180.3C331.672 179.677 331.049 178.929 330.925 178.056C330.8 177.121 331.049 176.186 331.735 175.127L332.794 173.507C333.48 172.509 334.228 172.011 335.038 171.886C335.848 171.761 336.845 172.011 337.967 172.634C339.027 173.257 340.46 173.943 342.205 174.691C343.95 175.439 345.945 175.813 348.313 175.813C350.307 175.813 351.866 175.376 353.05 174.566C354.172 173.694 354.795 172.572 354.795 171.138C354.795 169.892 354.234 168.832 353.112 168.084C351.99 167.336 350.557 166.651 348.874 166.028C347.129 165.404 345.322 164.719 343.327 163.971C341.395 163.223 339.525 162.35 337.78 161.229C336.035 160.169 334.664 158.736 333.542 157.053C332.42 155.37 331.859 153.189 331.859 150.509C331.859 148.265 332.358 146.271 333.293 144.526C334.228 142.78 335.474 141.347 337.095 140.163C338.715 139.041 340.585 138.168 342.704 137.545C344.698 136.797 347.004 136.548 349.435 136.548ZM214.751 136.548C217.805 136.548 220.423 136.922 222.604 137.732C224.723 138.542 226.406 139.228 227.652 139.914C228.65 140.474 229.273 141.16 229.46 142.095C229.647 143.03 229.46 143.965 229.024 145.024L228.089 146.645C227.528 147.704 226.842 148.39 226.032 148.577C225.16 148.764 224.162 148.577 223.04 148.14C222.043 147.642 220.797 147.143 219.301 146.645C217.805 146.146 216.185 145.897 214.253 145.897C212.258 145.897 210.7 146.271 209.641 147.081C208.581 147.891 208.02 149.013 208.02 150.446C208.02 151.693 208.581 152.752 209.703 153.5C210.825 154.311 212.258 154.996 213.941 155.557C215.686 156.18 217.494 156.804 219.488 157.489C221.42 158.175 223.29 159.047 225.035 160.169C226.78 161.229 228.151 162.662 229.273 164.345C230.395 166.028 230.956 168.209 230.956 170.764C230.956 172.821 230.519 174.691 229.709 176.436C228.899 178.181 227.715 179.677 226.157 180.923C224.599 182.17 222.729 183.167 220.61 183.915C218.428 184.663 215.998 184.974 213.38 184.974C209.641 184.974 206.462 184.413 203.907 183.354C201.351 182.294 199.357 181.235 197.986 180.3C196.989 179.677 196.365 178.929 196.241 178.056C196.116 177.121 196.365 176.186 197.051 175.127L198.111 173.507C198.796 172.509 199.544 172.011 200.354 171.886C201.164 171.761 202.162 172.011 203.284 172.634C204.343 173.257 205.777 173.943 207.522 174.691C209.267 175.439 211.261 175.813 213.629 175.813C215.624 175.813 217.182 175.376 218.366 174.566C219.488 173.694 220.111 172.572 220.111 171.138C220.111 169.892 219.55 168.832 218.428 168.084C217.307 167.336 215.873 166.651 214.19 166.028C212.445 165.404 210.638 164.719 208.643 163.971C206.711 163.223 204.842 162.35 203.097 161.229C201.351 160.169 199.98 158.736 198.858 157.053C197.737 155.37 197.176 153.189 197.176 150.509C197.176 148.265 197.674 146.271 198.609 144.526C199.544 142.78 200.791 141.347 202.411 140.163C204.031 139.041 205.901 138.168 208.02 137.545C210.077 136.797 212.383 136.548 214.751 136.548ZM379.912 119.471C382.467 119.471 383.714 120.718 383.714 123.273V141.97C383.714 142.593 383.714 143.092 383.651 143.528C383.651 143.965 383.589 144.401 383.527 144.775C383.464 145.211 383.464 145.585 383.464 145.834H383.651C384.212 144.775 384.96 143.653 385.957 142.531C386.954 141.409 388.139 140.412 389.51 139.477C390.881 138.542 392.439 137.857 394.122 137.296C395.867 136.735 397.674 136.486 399.669 136.486C404.779 136.486 408.768 137.857 411.573 140.661C414.377 143.466 415.811 147.891 415.811 154.061V179.988C415.811 182.544 414.564 183.79 412.009 183.79H408.145C405.59 183.79 404.343 182.544 404.343 179.988V156.43C404.343 153.563 403.844 151.319 402.91 149.574C401.912 147.829 399.98 147.019 397.113 147.019C395.119 147.019 393.312 147.392 391.629 148.203C389.946 149.013 388.575 150.072 387.391 151.444C386.269 152.815 385.334 154.435 384.711 156.305C384.087 158.175 383.776 160.231 383.776 162.413V180.113C383.776 182.668 382.529 183.915 379.974 183.915H376.11C373.555 183.915 372.308 182.668 372.308 180.113V123.335C372.308 120.78 373.555 119.533 376.11 119.533H379.912V119.471ZM319.768 137.608C322.261 137.608 323.508 138.854 323.508 141.409V180.051C323.508 182.606 322.261 183.852 319.768 183.852H315.78C313.287 183.852 312.04 182.606 312.04 180.051V141.409C312.04 138.854 313.287 137.608 315.78 137.608H319.768ZM242.922 137.608C245.228 137.608 246.599 138.729 246.973 140.973L254.39 168.022C254.514 168.708 254.639 169.268 254.701 169.829C254.764 170.39 254.888 170.889 255.013 171.387C255.138 171.948 255.2 172.447 255.262 172.946H255.449C255.512 172.447 255.574 171.948 255.699 171.387C255.823 170.889 255.948 170.39 256.01 169.829C256.073 169.268 256.26 168.708 256.446 168.022L264.237 140.973C264.673 138.792 266.045 137.732 268.413 137.732H271.841C274.084 137.732 275.456 138.792 276.016 140.973L283.745 168.022C283.932 168.708 284.056 169.268 284.181 169.829C284.243 170.39 284.368 170.889 284.493 171.387C284.617 171.948 284.68 172.447 284.742 172.946H284.929C284.991 172.447 285.054 171.948 285.178 171.387C285.303 170.889 285.427 170.39 285.49 169.829C285.552 169.268 285.739 168.708 285.926 168.022L293.28 140.973C293.841 138.729 295.212 137.608 297.456 137.608H301.632C303.003 137.608 304 137.981 304.561 138.792C305.122 139.602 305.184 140.599 304.81 141.846L292.969 180.674C292.346 182.793 290.974 183.852 288.731 183.852H282.685C280.379 183.852 278.946 182.793 278.447 180.612L271.467 157.489C271.28 156.866 271.155 156.305 271.03 155.682C270.906 155.058 270.781 154.56 270.657 154.061C270.532 153.5 270.47 153.002 270.407 152.503H270.22C270.096 153.002 269.971 153.5 269.846 154.061C269.722 154.56 269.597 155.058 269.472 155.682C269.348 156.305 269.223 156.866 269.036 157.489L262.056 180.612C261.495 182.793 260.124 183.852 257.88 183.852H251.648C249.466 183.852 248.095 182.793 247.472 180.674L235.505 141.846C235.131 140.599 235.256 139.54 235.817 138.792C236.378 137.981 237.313 137.608 238.684 137.608H242.922Z" fill="#4A4A49"/>
<path fill-rule="evenodd" clip-rule="evenodd" d="M79.0742 210.89C103.132 222.42 132.798 216.686 150.748 195.308C172 170.005 168.697 132.236 143.393 110.983L126.566 131.052C146.323 147.63 148.94 177.172 132.3 196.929C119.024 212.759 97.2107 217.995 79.0742 210.89Z" fill="url(#paint0_linear_13_332)"/>
<path fill-rule="evenodd" clip-rule="evenodd" d="M79.0742 210.89C103.132 222.42 132.798 216.686 150.748 195.308C152.929 192.691 154.861 189.948 156.544 187.082C159.348 169.506 153.178 150.871 138.47 138.593C134.73 135.477 130.741 132.984 126.503 131.052C146.26 147.63 148.878 177.172 132.237 196.929C119.024 212.759 97.2107 217.995 79.0742 210.89Z" fill="url(#paint1_linear_13_332)"/>
<path fill-rule="evenodd" clip-rule="evenodd" d="M130.675 102.83C106.618 91.3002 76.9515 97.0341 59.002 118.411C37.7493 143.715 41.0525 181.484 66.3563 202.737L83.184 182.668C63.3647 166.09 60.8094 136.548 77.4501 116.791C90.7253 101.023 112.477 95.7253 130.675 102.83Z" fill="url(#paint2_linear_13_332)"/>
<path fill-rule="evenodd" clip-rule="evenodd" d="M130.675 102.83C106.618 91.3002 76.9516 97.0341 59.0021 118.411C56.8207 121.029 54.8886 123.771 53.2059 126.638C50.4013 144.214 56.5714 162.849 71.28 175.127C75.0195 178.243 79.0083 180.736 83.2464 182.668C63.4895 166.09 60.8718 136.548 77.5125 116.791C90.7254 101.023 112.477 95.7253 130.675 102.83Z" fill="url(#paint3_linear_13_332)"/>
<defs>
<linearGradient id="paint0_linear_13_332" x1="123.003" y1="182.443" x2="111.816" y2="148.517" gradientUnits="userSpaceOnUse">
<stop stop-color="#EF2131"/>
<stop offset="1" stop-color="#FECF2C"/>
</linearGradient>
<linearGradient id="paint1_linear_13_332" x1="145.658" y1="140.985" x2="121.515" y2="191.202" gradientUnits="userSpaceOnUse">
<stop stop-color="#FBC52C"/>
<stop offset="0.26" stop-color="#F87130"/>
<stop offset="0.56" stop-color="#EF52E2"/>
<stop offset="1" stop-color="#661EEC"/>
</linearGradient>
<linearGradient id="paint2_linear_13_332" x1="87.1767" y1="132.456" x2="97.8716" y2="165.57" gradientUnits="userSpaceOnUse">
<stop stop-color="#78F6D8"/>
<stop offset="0.27" stop-color="#77D1F6"/>
<stop offset="0.55" stop-color="#70A4F3"/>
<stop offset="1" stop-color="#661EEC"/>
</linearGradient>
<linearGradient id="paint3_linear_13_332" x1="64.3043" y1="172.426" x2="88.2517" y2="122.395" gradientUnits="userSpaceOnUse">
<stop stop-color="#536EED"/>
<stop offset="0.25" stop-color="#54C3EC"/>
<stop offset="0.56" stop-color="#64D769"/>
<stop offset="1" stop-color="#FECF2C"/>
</linearGradient>
</defs>
</svg>
